<svg width="80" height="80" viewBox="0 0 80 80" fill="none" xmlns="http://www.w3.org/2000/svg">
<path d="M12 12C7.5875 12 4 15.5875 4 20V60C4 64.4125 7.5875 68 12 68H68C72.4125 68 76 64.4125 76 60V20C76 15.5875 72.4125 12 68 12H12ZM22 44H30C35.525 44 40 48.475 40 54C40 55.1 39.1 56 38 56H14C12.9 56 12 55.1 12 54C12 48.475 16.475 44 22 44ZM19 32C19 28.1375 22.1375 25 26 25C29.8625 25 33 28.1375 33 32C33 35.8625 29.8625 39 26 39C22.1375 39 19 35.8625 19 32ZM49 26H63C64.6625 26 66 27.3375 66 29C66 30.6625 64.6625 32 63 32H49C47.3375 32 46 30.6625 46 29C46 27.3375 47.3375 26 49 26ZM49 38H63C64.6625 38 66 39.3375 66 41C66 42.6625 64.6625 44 63 44H49C47.3375 44 46 42.6625 46 41C46 39.3375 47.3375 38 49 38Z" fill="#8CA089"/>
</svg>
