<svg width="64" height="64" viewBox="0 0 64 64" fill="none" xmlns="http://www.w3.org/2000/svg">
<path d="M57.5999 31.9999C57.5999 17.8599 46.1399 6.3999 31.9999 6.3999C17.8599 6.3999 6.3999 17.8599 6.3999 31.9999C6.3999 43.9999 14.6699 54.0799 25.8199 56.8499V39.8199H20.5399V31.9999H25.8199V28.6299C25.8199 19.9199 29.7599 15.8799 38.3199 15.8799C39.9399 15.8799 42.7399 16.1999 43.8899 16.5199V23.5999C43.2899 23.5399 42.2399 23.4999 40.9299 23.4999C36.7299 23.4999 35.1099 25.0899 35.1099 29.2199V31.9999H43.4699L42.0299 39.8199H35.0999V57.4099C47.7799 55.8799 57.5999 45.0899 57.5999 31.9999Z" fill="#8CA089"/>
</svg>
