<svg width="64" height="64" viewBox="0 0 64 64" fill="none" xmlns="http://www.w3.org/2000/svg">
<path d="M23.79 46.1399C23.79 46.34 23.56 46.5 23.27 46.5C22.94 46.53 22.71 46.3699 22.71 46.1399C22.71 45.94 22.94 45.7799 23.23 45.7799C23.53 45.75 23.79 45.91 23.79 46.1399ZM20.68 45.69C20.61 45.8899 20.81 46.1199 21.11 46.18C21.37 46.2799 21.67 46.18 21.73 45.9799C21.79 45.7799 21.6 45.55 21.3 45.46C21.04 45.39 20.75 45.49 20.68 45.69ZM25.1 45.52C24.81 45.59 24.61 45.78 24.64 46.01C24.67 46.21 24.93 46.34 25.23 46.27C25.52 46.2 25.72 46.01 25.69 45.81C25.66 45.62 25.39 45.49 25.1 45.52ZM31.68 7.19995C17.81 7.19995 7.19995 17.73 7.19995 31.6C7.19995 42.69 14.18 52.18 24.15 55.52C25.43 55.75 25.8799 54.9599 25.8799 54.3099C25.8799 53.6899 25.85 50.27 25.85 48.17C25.85 48.17 18.85 49.67 17.38 45.19C17.38 45.19 16.24 42.2799 14.6 41.5299C14.6 41.5299 12.31 39.9599 14.76 39.99C14.76 39.99 17.25 40.19 18.62 42.57C20.81 46.43 24.48 45.32 25.91 44.66C26.14 43.06 26.79 41.95 27.51 41.29C21.92 40.67 16.28 39.86 16.28 30.24C16.28 27.49 17.04 26.11 18.64 24.35C18.38 23.7 17.53 21.02 18.9 17.56C20.99 16.91 25.8 20.26 25.8 20.26C27.8 19.7 29.95 19.41 32.08 19.41C34.2099 19.41 36.36 19.7 38.36 20.26C38.36 20.26 43.17 16.9 45.26 17.56C46.63 21.03 45.78 23.7 45.52 24.35C47.12 26.12 48.1 27.5 48.1 30.24C48.1 39.8899 42.21 40.66 36.62 41.29C37.54 42.08 38.32 43.58 38.32 45.93C38.32 49.2999 38.29 53.47 38.29 54.29C38.29 54.94 38.75 55.73 40.02 55.5C50.02 52.18 56.8 42.69 56.8 31.6C56.8 17.73 45.5499 7.19995 31.68 7.19995ZM16.92 41.69C16.79 41.79 16.82 42.02 16.99 42.21C17.15 42.37 17.38 42.44 17.51 42.31C17.64 42.21 17.61 41.9799 17.44 41.79C17.28 41.63 17.05 41.56 16.92 41.69ZM15.84 40.88C15.77 41.0099 15.87 41.17 16.07 41.27C16.23 41.37 16.43 41.34 16.5 41.2C16.57 41.07 16.47 40.91 16.27 40.81C16.07 40.75 15.91 40.7799 15.84 40.88ZM19.08 44.44C18.92 44.57 18.98 44.87 19.21 45.06C19.44 45.29 19.73 45.32 19.86 45.16C19.99 45.03 19.93 44.7299 19.73 44.54C19.51 44.31 19.21 44.28 19.08 44.44ZM17.94 42.97C17.78 43.07 17.78 43.33 17.94 43.56C18.1 43.79 18.37 43.8899 18.5 43.79C18.66 43.66 18.66 43.4 18.5 43.17C18.36 42.94 18.1 42.84 17.94 42.97Z" fill="#8CA089"/>
</svg>
