<svg width="64" height="64" viewBox="0 0 64 64" fill="none" xmlns="http://www.w3.org/2000/svg">
<path d="M58.17 18.81C57.55 16.44 55.69 14.58 53.34 13.95C49.09 12.8 32.01 12.8 32.01 12.8C32.01 12.8 14.93 12.8 10.67 13.95C8.31995 14.58 6.46995 16.44 5.83995 18.81C4.69995 23.1 4.69995 32.04 4.69995 32.04C4.69995 32.04 4.69995 40.98 5.83995 45.27C6.46995 47.63 8.31995 49.42 10.67 50.05C14.93 51.2 32.01 51.2 32.01 51.2C32.01 51.2 49.09 51.2 53.35 50.05C55.7 49.42 57.5499 47.63 58.18 45.27C59.32 40.98 59.32 32.04 59.32 32.04C59.32 32.04 59.32 23.1 58.18 18.81H58.17ZM26.42 40.16V23.92L40.69 32.04L26.42 40.16Z" fill="#8CA089"/>
</svg>
